<svg width="984" height="415" viewBox="0 0 984 415" fill="none" xmlns="http://www.w3.org/2000/svg">
<circle cx="502" cy="482" r="480" stroke="#F1C9B3" stroke-opacity="0.3" stroke-width="4"/>
<path d="M1.458 360.168C1.458 358.392 1.686 357.036 2.142 356.1C2.61 355.152 3.12 354.474 3.672 354.066C4.02 353.802 4.356 353.628 4.68 353.544C5.004 353.448 5.274 353.4 5.49 353.4C5.73 353.4 5.988 353.424 6.264 353.472C6.552 353.52 6.834 353.604 7.11 353.724C7.866 354.024 8.556 354.612 9.18 355.488C9.816 356.352 10.134 357.648 10.134 359.376C10.134 359.616 10.128 359.856 10.116 360.096C10.104 360.336 10.08 360.576 10.044 360.816C9.888 362.208 9.48 363.48 8.82 364.632C8.172 365.784 7.236 366.36 6.012 366.36C6 366.36 5.988 366.36 5.976 366.36C5.976 366.36 5.97 366.36 5.958 366.36C4.83 366.348 3.798 365.814 2.862 364.758C1.926 363.69 1.458 362.16 1.458 360.168ZM2.772 359.79C2.82 361.638 3.108 363.036 3.636 363.984C4.164 364.932 4.74 365.526 5.364 365.766C5.472 365.814 5.58 365.85 5.688 365.874C5.808 365.886 5.922 365.892 6.03 365.892C6.042 365.892 6.048 365.892 6.048 365.892C6.06 365.892 6.072 365.892 6.084 365.892C6.732 365.88 7.326 365.466 7.866 364.65C8.406 363.822 8.676 362.142 8.676 359.61C8.676 357.81 8.46 356.508 8.028 355.704C7.596 354.9 7.122 354.372 6.606 354.12C6.402 354.024 6.198 353.958 5.994 353.922C5.79 353.886 5.604 353.868 5.436 353.868C5.34 353.868 5.238 353.88 5.13 353.904C5.034 353.916 4.932 353.934 4.824 353.958C4.332 354.126 3.876 354.558 3.456 355.254C3.048 355.95 2.82 357.096 2.772 358.692C2.772 358.74 2.766 358.788 2.754 358.836C2.754 358.884 2.754 358.926 2.754 358.962C2.754 359.01 2.754 359.058 2.754 359.106C2.754 359.154 2.754 359.202 2.754 359.25C2.754 359.298 2.754 359.346 2.754 359.394C2.754 359.43 2.76 359.472 2.772 359.52C2.772 359.568 2.772 359.616 2.772 359.664C2.772 359.7 2.772 359.742 2.772 359.79ZM14.1901 356.19V355.506C14.9341 355.206 15.6601 354.858 16.3681 354.462C17.0761 354.054 17.7721 353.592 18.4561 353.076H18.5461C18.4501 353.712 18.3721 354.456 18.3121 355.308C18.2641 356.148 18.2401 357.486 18.2401 359.322C18.2401 359.454 18.2401 359.58 18.2401 359.7C18.2401 359.82 18.2401 359.94 18.2401 360.06C18.2401 362.544 18.3061 364.068 18.4381 364.632C18.5821 365.196 19.0861 365.478 19.9501 365.478H20.1481V366.018C20.1001 366.006 20.0521 366 20.0041 366C19.9681 366 19.9321 366 19.8961 366C19.8841 366 19.8721 366 19.8601 366C19.8241 366 19.7881 366 19.7521 366C19.7281 365.988 19.6981 365.982 19.6621 365.982C19.4701 365.982 19.2961 365.976 19.1401 365.964C18.9961 365.952 18.8581 365.94 18.7261 365.928C18.7141 365.916 18.6961 365.91 18.6721 365.91C18.6481 365.91 18.6241 365.91 18.6001 365.91C18.4681 365.898 18.3301 365.886 18.1861 365.874C18.0421 365.862 17.8741 365.856 17.6821 365.856C17.2381 365.856 16.9021 365.868 16.6741 365.892C16.4581 365.904 16.2841 365.916 16.1521 365.928C16.1161 365.94 16.0801 365.952 16.0441 365.964C16.0201 365.964 15.9901 365.964 15.9541 365.964C15.8701 365.976 15.7741 365.988 15.6661 366C15.5581 366 15.4141 366 15.2341 366L14.8921 366.018V365.478H15.0901C15.1861 365.478 15.2761 365.478 15.3601 365.478C15.4561 365.478 15.5461 365.478 15.6301 365.478C16.0621 365.478 16.3861 365.316 16.6021 364.992C16.8301 364.668 16.9501 363.774 16.9621 362.31C16.9621 362.058 16.9621 361.806 16.9621 361.554C16.9621 361.29 16.9621 361.032 16.9621 360.78C16.9621 360.696 16.9621 360.612 16.9621 360.528C16.9621 360.444 16.9621 360.36 16.9621 360.276C16.9621 360.108 16.9621 359.94 16.9621 359.772C16.9621 359.592 16.9621 359.418 16.9621 359.25C16.9621 359.166 16.9621 359.088 16.9621 359.016C16.9621 358.932 16.9621 358.854 16.9621 358.782C16.9621 357.174 16.9321 356.184 16.8721 355.812C16.8241 355.428 16.6261 355.236 16.2781 355.236C16.1701 355.236 16.0501 355.254 15.9181 355.29C15.7861 355.326 15.6601 355.368 15.5401 355.416C15.4321 355.464 15.3241 355.518 15.2161 355.578C15.1081 355.626 15.0061 355.68 14.9101 355.74C14.7541 355.824 14.6101 355.914 14.4781 356.01C14.3461 356.094 14.2501 356.154 14.1901 356.19Z" fill="#765B4A"/>
<path d="M196.458 80.168C196.458 78.392 196.686 77.036 197.142 76.1C197.61 75.152 198.12 74.474 198.672 74.066C199.02 73.802 199.356 73.628 199.68 73.544C200.004 73.448 200.274 73.4 200.49 73.4C200.73 73.4 200.988 73.424 201.264 73.472C201.552 73.52 201.834 73.604 202.11 73.724C202.866 74.024 203.556 74.612 204.18 75.488C204.816 76.352 205.134 77.648 205.134 79.376C205.134 79.616 205.128 79.856 205.116 80.096C205.104 80.336 205.08 80.576 205.044 80.816C204.888 82.208 204.48 83.48 203.82 84.632C203.172 85.784 202.236 86.36 201.012 86.36C201 86.36 200.988 86.36 200.976 86.36C200.976 86.36 200.97 86.36 200.958 86.36C199.83 86.348 198.798 85.814 197.862 84.758C196.926 83.69 196.458 82.16 196.458 80.168ZM197.772 79.79C197.82 81.638 198.108 83.036 198.636 83.984C199.164 84.932 199.74 85.526 200.364 85.766C200.472 85.814 200.58 85.85 200.688 85.874C200.808 85.886 200.922 85.892 201.03 85.892C201.042 85.892 201.048 85.892 201.048 85.892C201.06 85.892 201.072 85.892 201.084 85.892C201.732 85.88 202.326 85.466 202.866 84.65C203.406 83.822 203.676 82.142 203.676 79.61C203.676 77.81 203.46 76.508 203.028 75.704C202.596 74.9 202.122 74.372 201.606 74.12C201.402 74.024 201.198 73.958 200.994 73.922C200.79 73.886 200.604 73.868 200.436 73.868C200.34 73.868 200.238 73.88 200.13 73.904C200.034 73.916 199.932 73.934 199.824 73.958C199.332 74.126 198.876 74.558 198.456 75.254C198.048 75.95 197.82 77.096 197.772 78.692C197.772 78.74 197.766 78.788 197.754 78.836C197.754 78.884 197.754 78.926 197.754 78.962C197.754 79.01 197.754 79.058 197.754 79.106C197.754 79.154 197.754 79.202 197.754 79.25C197.754 79.298 197.754 79.346 197.754 79.394C197.754 79.43 197.76 79.472 197.772 79.52C197.772 79.568 197.772 79.616 197.772 79.664C197.772 79.7 197.772 79.742 197.772 79.79ZM209.874 80.114V79.394C209.886 79.394 209.892 79.394 209.892 79.394C209.904 79.382 209.916 79.376 209.928 79.376C210.876 79.016 211.746 78.488 212.538 77.792C213.342 77.084 213.744 76.25 213.744 75.29C213.744 74.858 213.6 74.522 213.312 74.282C213.036 74.03 212.676 73.904 212.232 73.904C211.644 73.904 211.11 74.15 210.63 74.642C210.15 75.122 209.79 75.656 209.55 76.244C209.526 76.16 209.472 76.022 209.388 75.83C209.304 75.626 209.172 75.404 208.992 75.164C209.7 74.444 210.36 73.958 210.972 73.706C211.584 73.442 212.148 73.31 212.664 73.31C213.48 73.31 214.068 73.49 214.428 73.85C214.788 74.198 214.974 74.582 214.986 75.002C214.986 75.014 214.986 75.026 214.986 75.038C214.986 75.038 214.986 75.044 214.986 75.056C214.986 75.2 214.974 75.344 214.95 75.488C214.926 75.632 214.884 75.782 214.824 75.938C214.668 76.406 214.392 76.862 213.996 77.306C213.6 77.738 213.12 78.098 212.556 78.386L212.61 78.494C212.718 78.47 212.832 78.458 212.952 78.458C213.072 78.446 213.192 78.44 213.312 78.44C213.372 78.44 213.426 78.44 213.474 78.44C213.522 78.44 213.57 78.44 213.618 78.44C214.278 78.44 214.812 78.68 215.22 79.16C215.628 79.64 215.856 80.162 215.904 80.726C215.904 80.762 215.904 80.798 215.904 80.834C215.904 80.858 215.904 80.888 215.904 80.924C215.904 81.212 215.868 81.53 215.796 81.878C215.736 82.214 215.64 82.562 215.508 82.922C215.184 83.75 214.626 84.512 213.834 85.208C213.054 85.904 211.98 86.252 210.612 86.252C210.252 86.252 209.94 86.216 209.676 86.144C209.424 86.072 209.178 85.982 208.938 85.874C208.926 85.862 208.908 85.856 208.884 85.856C208.872 85.844 208.86 85.832 208.848 85.82C208.908 85.724 208.968 85.61 209.028 85.478C209.088 85.346 209.142 85.214 209.19 85.082C209.226 84.974 209.256 84.872 209.28 84.776C209.316 84.68 209.346 84.59 209.37 84.506C209.418 84.566 209.472 84.638 209.532 84.722C209.592 84.794 209.664 84.866 209.748 84.938C209.94 85.118 210.174 85.286 210.45 85.442C210.738 85.598 211.074 85.676 211.458 85.676C212.31 85.676 213.042 85.286 213.654 84.506C214.278 83.714 214.59 82.754 214.59 81.626C214.59 80.882 214.368 80.306 213.924 79.898C213.48 79.49 212.994 79.262 212.466 79.214C212.43 79.202 212.388 79.196 212.34 79.196C212.304 79.196 212.268 79.196 212.232 79.196C212.076 79.196 211.908 79.214 211.728 79.25C211.56 79.286 211.386 79.334 211.206 79.394C210.966 79.478 210.732 79.586 210.504 79.718C210.276 79.838 210.066 79.97 209.874 80.114Z" fill="#765B4A"/>
<circle cx="37.5" cy="361.5" r="4.5" fill="#AF6A4D"/>
<circle cx="232.5" cy="84.5" r="4.5" fill="#765B4A"/>
<path d="M8.944 216.224C8.944 213.856 9.248 212.048 9.856 210.8C10.48 209.536 11.16 208.632 11.896 208.088C12.36 207.736 12.808 207.504 13.24 207.392C13.672 207.264 14.032 207.2 14.32 207.2C14.64 207.2 14.984 207.232 15.352 207.296C15.736 207.36 16.112 207.472 16.48 207.632C17.488 208.032 18.408 208.816 19.24 209.984C20.088 211.136 20.512 212.864 20.512 215.168C20.512 215.488 20.504 215.808 20.488 216.128C20.472 216.448 20.44 216.768 20.392 217.088C20.184 218.944 19.64 220.64 18.76 222.176C17.896 223.712 16.648 224.48 15.016 224.48C15 224.48 14.984 224.48 14.968 224.48C14.968 224.48 14.96 224.48 14.944 224.48C13.44 224.464 12.064 223.752 10.816 222.344C9.568 220.92 8.944 218.88 8.944 216.224ZM10.696 215.72C10.76 218.184 11.144 220.048 11.848 221.312C12.552 222.576 13.32 223.368 14.152 223.688C14.296 223.752 14.44 223.8 14.584 223.832C14.744 223.848 14.896 223.856 15.04 223.856C15.056 223.856 15.064 223.856 15.064 223.856C15.08 223.856 15.096 223.856 15.112 223.856C15.976 223.84 16.768 223.288 17.488 222.2C18.208 221.096 18.568 218.856 18.568 215.48C18.568 213.08 18.28 211.344 17.704 210.272C17.128 209.2 16.496 208.496 15.808 208.16C15.536 208.032 15.264 207.944 14.992 207.896C14.72 207.848 14.472 207.824 14.248 207.824C14.12 207.824 13.984 207.84 13.84 207.872C13.712 207.888 13.576 207.912 13.432 207.944C12.776 208.168 12.168 208.744 11.608 209.672C11.064 210.6 10.76 212.128 10.696 214.256C10.696 214.32 10.688 214.384 10.672 214.448C10.672 214.512 10.672 214.568 10.672 214.616C10.672 214.68 10.672 214.744 10.672 214.808C10.672 214.872 10.672 214.936 10.672 215C10.672 215.064 10.672 215.128 10.672 215.192C10.672 215.24 10.68 215.296 10.696 215.36C10.696 215.424 10.696 215.488 10.696 215.552C10.696 215.6 10.696 215.656 10.696 215.72ZM34.4934 220.136H35.3814C35.3014 220.376 35.2294 220.592 35.1654 220.784C35.1014 220.976 35.0454 221.16 34.9974 221.336C34.9814 221.4 34.9654 221.464 34.9494 221.528C34.9334 221.576 34.9174 221.624 34.9014 221.672C34.8534 221.816 34.8054 221.976 34.7574 222.152C34.7254 222.312 34.6854 222.488 34.6374 222.68C34.5894 222.856 34.5494 223.016 34.5174 223.16C34.4854 223.288 34.4534 223.408 34.4214 223.52C34.4214 223.568 34.4134 223.616 34.3974 223.664C34.3974 223.712 34.3894 223.76 34.3734 223.808C34.3734 223.84 34.3654 223.88 34.3494 223.928C34.3494 223.96 34.3494 223.984 34.3494 224C34.3014 224.016 34.2534 224.032 34.2054 224.048C34.1574 224.064 34.1094 224.08 34.0614 224.096C33.8694 224.144 33.6614 224.184 33.4374 224.216C33.2134 224.264 32.9814 224.288 32.7414 224.288C32.5974 224.288 32.4534 224.28 32.3094 224.264C32.1654 224.248 32.0294 224.232 31.9014 224.216C31.8054 224.2 31.7094 224.184 31.6134 224.168C31.5174 224.152 31.4214 224.136 31.3254 224.12C31.2774 224.12 31.2294 224.112 31.1814 224.096C31.1334 224.096 31.0854 224.088 31.0374 224.072C30.2374 223.944 29.4854 223.864 28.7814 223.832C28.0774 223.784 27.4934 223.76 27.0294 223.76C26.8374 223.76 26.6534 223.768 26.4774 223.784C26.3014 223.784 26.1254 223.784 25.9494 223.784C25.6454 223.816 25.3334 223.864 25.0134 223.928C24.6934 223.976 24.3334 224.072 23.9334 224.216V223.616C24.0454 223.52 24.1574 223.424 24.2694 223.328C24.3974 223.232 24.5174 223.128 24.6294 223.016C25.4934 222.232 26.3334 221.304 27.1494 220.232C27.9814 219.16 28.7174 218.064 29.3574 216.944C30.0134 215.792 30.5414 214.68 30.9414 213.608C31.3414 212.52 31.5414 211.584 31.5414 210.8C31.5414 209.936 31.3494 209.28 30.9654 208.832C30.5814 208.384 30.1574 208.104 29.6934 207.992C29.6134 207.976 29.5254 207.968 29.4294 207.968C29.3494 207.952 29.2694 207.944 29.1894 207.944C28.9174 207.944 28.6054 207.992 28.2534 208.088C27.9174 208.168 27.5654 208.328 27.1974 208.568C26.8294 208.808 26.4694 209.136 26.1174 209.552C25.7814 209.952 25.4774 210.472 25.2054 211.112C25.1734 211 25.1334 210.904 25.0854 210.824C25.0534 210.744 25.0134 210.672 24.9654 210.608C24.9334 210.56 24.9014 210.52 24.8694 210.488C24.8534 210.44 24.8294 210.392 24.7974 210.344C24.7654 210.296 24.7334 210.256 24.7014 210.224C24.6854 210.176 24.6694 210.136 24.6534 210.104C24.6374 210.088 24.6214 210.072 24.6054 210.056C24.6054 210.04 24.5974 210.024 24.5814 210.008C24.5654 209.976 24.5414 209.944 24.5094 209.912C24.4774 209.864 24.4374 209.816 24.3894 209.768C25.2054 208.92 26.0774 208.264 27.0054 207.8C27.9334 207.32 28.9254 207.08 29.9814 207.08C31.0694 207.08 31.9494 207.392 32.6214 208.016C33.2934 208.64 33.6294 209.496 33.6294 210.584C33.6294 210.664 33.6214 210.744 33.6054 210.824C33.6054 210.904 33.6054 210.984 33.6054 211.064C33.4614 212.456 32.8374 213.896 31.7334 215.384C30.6294 216.872 29.3734 218.584 27.9654 220.52C27.8534 220.68 27.7494 220.832 27.6534 220.976C27.5574 221.104 27.4614 221.224 27.3654 221.336C27.2694 221.464 27.1654 221.584 27.0534 221.696C26.9574 221.792 26.8534 221.896 26.7414 222.008C26.6774 222.04 26.6214 222.08 26.5734 222.128C26.5254 222.16 26.4694 222.2 26.4054 222.248L26.4774 222.344C26.5094 222.328 26.5574 222.312 26.6214 222.296C26.7014 222.264 26.7974 222.232 26.9094 222.2C27.1014 222.152 27.3414 222.112 27.6294 222.08C27.9334 222.032 28.2934 222.008 28.7094 222.008C28.8374 222.008 28.9574 222.016 29.0694 222.032C29.1974 222.032 29.3174 222.04 29.4294 222.056C29.4934 222.056 29.5494 222.064 29.5974 222.08C29.6614 222.08 29.7254 222.08 29.7894 222.08C31.0054 222.176 31.7974 222.232 32.1654 222.248C32.5334 222.264 32.7894 222.272 32.9334 222.272C33.0294 222.272 33.1254 222.264 33.2214 222.248C33.3174 222.216 33.4214 222.168 33.5334 222.104C33.7254 221.992 33.9094 221.792 34.0854 221.504C34.2614 221.2 34.3974 220.744 34.4934 220.136Z" fill="#D7825D"/>
<line x1="49" y1="215.5" x2="83" y2="215.5" stroke="#D7825D" stroke-opacity="0.8"/>
<circle cx="101.5" cy="216.5" r="5.5" fill="#AF6A4D"/>
<circle cx="101.5" cy="216.5" r="8" stroke="#AF6A4D"/>
<path d="M37.4987 360.5C37.4987 360.5 49.7236 318.018 62.4973 289.5C75.0724 261.426 101.997 216 101.997 216" stroke="#AF6A4D" stroke-width="4.5"/>
</svg>
